<?xml version="1.0" encoding="iso-8859-1"?>
<!-- Generator: Adobe Illustrator 16.0.0, SVG Export Plug-In . SVG Version: 6.00 Build 0)  -->
<!DOCTYPE svg PUBLIC "-//W3C//DTD SVG 1.1//EN" "http://www.w3.org/Graphics/SVG/1.1/DTD/svg11.dtd">
<svg version="1.1" id="Capa_1" xmlns="http://www.w3.org/2000/svg" xmlns:xlink="http://www.w3.org/1999/xlink" x="0px" y="0px"
	 width="106.058px" height="106.059px" viewBox="0 0 106.058 106.059" style="enable-background:new 0 0 106.058 106.059;"
	 xml:space="preserve">
<g>
	<path style="fill:#010002;" d="M40.33,76.812c0.854,0.85,2.024,1.066,1.491,1.605l-6.196,5.209c-1.24,1.253-2.763-1.284-2.167-1.88
		l5.258-6.426C39.253,74.782,39.476,75.953,40.33,76.812z M53.143,59.342c1.988,1.988,6.929,0.362,4.309-6.566
		c-2.33-6.183,1.035-8.854,1.035-8.854C56.892,44.454,48.718,54.901,53.143,59.342z M46.751,65.731
		c1.988,1.988,6.936,0.362,4.305-6.576c-2.332-6.173,1.041-8.857,1.041-8.857C50.495,50.834,42.308,61.299,46.751,65.731z
		 M70.562,46.805c-1.543,0.339-14.467,5.592-9.781,10.281C65.499,61.796,70.562,46.805,70.562,46.805z M58.088,66.177
		c-6.931-2.604-8.564,2.335-6.565,4.323c4.438,4.438,14.896-3.749,15.431-5.349C66.954,65.156,64.276,68.517,58.088,66.177z
		 M106.053,21.21v63.639c0,11.667-9.543,21.21-21.21,21.21H21.215c-11.667,0-21.209-9.543-21.209-21.21V21.21
		C0.005,9.543,9.548,0,21.215,0h63.628C96.51,0,106.053,9.543,106.053,21.21z M23.765,21.593l10.447,9.735h37.634l10.45-9.735
		c0,0-5.188-7.265-13.77-8.22c-8.372-0.932-11.304,4.215-15.492,4.412c-4.199-0.196-7.11-5.339-15.498-4.412
		C28.966,14.328,23.765,21.593,23.765,21.593z M74.673,37.583H31.39c0,0-20.78,16.357-13.955,46.51c0,0,2.273,8.71,12.72,8.71
		h45.762c10.434,0,12.707-8.71,12.707-8.71C95.449,53.94,74.673,37.583,74.673,37.583z M51.512,72.773
		c-6.946-2.62-8.567,2.325-6.563,4.324c4.433,4.427,14.9-3.766,15.418-5.359C60.367,71.738,57.679,75.108,51.512,72.773z
		 M44.483,65.741c-2.333-6.183,1.043-8.852,1.043-8.852c-1.628,0.536-9.805,10.99-5.359,15.418
		C42.142,74.316,47.105,72.68,44.483,65.741z M64.494,59.797c-6.959-2.62-8.57,2.325-6.581,4.313
		c4.433,4.438,14.897-3.738,15.436-5.349C73.348,58.767,70.65,62.148,64.494,59.797z"/>
</g>
<g>
</g>
<g>
</g>
<g>
</g>
<g>
</g>
<g>
</g>
<g>
</g>
<g>
</g>
<g>
</g>
<g>
</g>
<g>
</g>
<g>
</g>
<g>
</g>
<g>
</g>
<g>
</g>
<g>
</g>
</svg>
